<?xml version="1.0" encoding="UTF-8" standalone="no"?>
<!DOCTYPE svg PUBLIC "-//W3C//DTD SVG 1.1//EN" "http://www.w3.org/Graphics/SVG/1.1/DTD/svg11.dtd">
<svg width="100%" height="100%" viewBox="0 0 800 800" version="1.1" xmlns="http://www.w3.org/2000/svg" xmlns:xlink="http://www.w3.org/1999/xlink" xml:space="preserve" xmlns:serif="http://www.serif.com/" style="fill-rule:evenodd;clip-rule:evenodd;stroke-linejoin:round;stroke-miterlimit:2;">
    <path d="M202.859,797.171C155.283,795.007 129.438,787.089 112.248,780.385C89.47,771.516 73.231,760.959 56.136,743.888C39.041,726.817 28.46,710.577 19.639,687.8C12.934,670.61 5.017,644.765 2.853,597.188C0.476,545.76 0,530.33 0,400.036C0,269.742 0.523,254.335 2.829,202.859C4.993,155.283 12.958,129.486 19.615,112.248C28.484,89.47 39.064,73.231 56.112,56.112C73.183,39.041 89.423,28.436 112.224,19.615C129.414,12.911 155.259,4.993 202.835,2.829C254.287,0.476 269.742,0 399.988,0C530.282,0 545.689,0.523 597.165,2.829C644.741,4.993 670.538,12.958 687.776,19.615C710.554,28.436 726.793,39.041 743.888,56.112C760.983,73.183 771.516,89.446 780.385,112.224C787.089,129.414 795.007,155.259 797.171,202.835C799.524,254.311 800,269.718 800,400.012C800,530.258 799.524,545.713 797.171,597.188C795.007,644.765 787.042,670.61 780.385,687.8C771.516,710.577 760.959,726.817 743.888,743.888C726.817,760.959 710.554,771.516 687.776,780.385C670.586,787.089 644.741,795.007 597.165,797.171C545.737,799.524 530.282,800 399.988,800C269.742,800 254.287,799.548 202.859,797.171" style="fill:url(#_Radial1);fill-rule:nonzero;"/>
    <path d="M202.859,797.171C155.283,795.007 129.438,787.089 112.248,780.385C89.47,771.516 73.231,760.959 56.136,743.888C39.041,726.817 28.46,710.577 19.639,687.8C12.934,670.61 5.017,644.765 2.853,597.188C0.476,545.76 0,530.33 0,400.036C0,269.742 0.523,254.335 2.829,202.859C4.993,155.283 12.958,129.486 19.615,112.248C28.484,89.47 39.064,73.231 56.112,56.112C73.183,39.041 89.423,28.436 112.224,19.615C129.414,12.911 155.259,4.993 202.835,2.829C254.287,0.476 269.742,0 399.988,0C530.282,0 545.689,0.523 597.165,2.829C644.741,4.993 670.538,12.958 687.776,19.615C710.554,28.436 726.793,39.041 743.888,56.112C760.983,73.183 771.516,89.446 780.385,112.224C787.089,129.414 795.007,155.259 797.171,202.835C799.524,254.311 800,269.718 800,400.012C800,530.258 799.524,545.713 797.171,597.188C795.007,644.765 787.042,670.61 780.385,687.8C771.516,710.577 760.959,726.817 743.888,743.888C726.817,760.959 710.554,771.516 687.776,780.385C670.586,787.089 644.741,795.007 597.165,797.171C545.737,799.524 530.282,800 399.988,800C269.742,800 254.287,799.548 202.859,797.171" style="fill:url(#_Radial2);fill-rule:nonzero;"/>
    <path d="M301.78,401.705C301.78,346.993 346.121,302.629 400.832,302.629C455.544,302.629 499.908,346.993 499.908,401.705C499.908,456.416 455.544,500.78 400.832,500.78C346.121,500.78 301.78,456.416 301.78,401.705M248.222,401.705C248.222,485.992 316.545,554.315 400.832,554.315C485.119,554.315 553.443,485.992 553.443,401.705C553.443,317.418 485.119,249.094 400.832,249.094C316.545,249.094 248.224,317.413 248.224,401.705M523.822,243.043C523.822,243.048 523.822,243.053 523.822,243.058C523.822,262.623 539.922,278.722 559.486,278.722C579.051,278.722 595.151,262.623 595.151,243.058C595.151,223.498 579.06,207.401 559.501,207.393L559.486,207.393C539.93,207.402 523.839,223.487 523.822,243.043M280.762,643.624C251.786,642.304 236.036,637.477 225.57,633.4C211.694,627.998 201.794,621.564 191.385,611.169C180.975,600.774 174.532,590.883 169.154,577.007C165.074,566.546 160.247,550.791 158.93,521.815C157.489,490.488 157.202,481.077 157.202,401.71C157.202,322.342 157.513,312.957 158.93,281.604C160.25,252.628 165.112,236.904 169.154,226.412C174.556,212.536 180.99,202.636 191.385,192.226C201.78,181.817 211.671,175.374 225.57,169.996C236.032,165.916 251.786,161.089 280.762,159.772C312.09,158.331 321.5,158.043 400.832,158.043C480.164,158.043 489.584,158.35 520.938,159.777C549.914,161.096 565.637,165.958 576.13,170C590.006,175.378 599.906,181.836 610.315,192.231C620.725,202.626 627.144,212.541 632.546,226.417C636.626,236.878 641.453,252.632 642.77,281.608C644.211,312.962 644.498,322.347 644.498,401.714C644.498,481.082 644.211,490.466 642.77,521.82C641.45,550.796 636.6,566.546 632.546,577.012C627.144,590.888 620.71,600.788 610.315,611.174C599.92,621.559 590.006,628.002 576.13,633.404C565.668,637.484 549.914,642.311 520.938,643.628C489.61,645.069 480.2,645.357 400.832,645.357C321.465,645.357 312.08,645.069 280.762,643.628M278.301,106.301C246.662,107.742 225.042,112.759 206.162,120.106C186.62,127.693 170.055,137.871 153.514,154.386C136.973,170.901 126.82,187.469 119.233,207.034C111.886,225.927 106.87,247.535 105.429,279.174C103.964,310.863 103.629,320.994 103.629,401.705C103.629,482.416 103.964,492.547 105.429,524.236C106.87,555.877 111.886,577.483 119.233,596.375C126.82,615.917 136.975,632.515 153.514,649.023C170.053,665.531 186.596,675.695 206.162,683.304C225.078,690.651 246.662,695.667 278.301,697.108C310.007,698.549 320.121,698.908 400.832,698.908C481.543,698.908 491.674,698.573 523.363,697.108C555.005,695.667 576.61,690.651 595.503,683.304C615.044,675.695 631.609,665.538 648.151,649.023C664.692,632.508 674.823,615.917 682.431,596.375C689.778,577.483 694.819,555.875 696.236,524.236C697.676,492.523 698.012,482.416 698.012,401.705C698.012,320.994 697.676,310.863 696.236,279.174C694.795,247.532 689.778,225.915 682.431,207.034C674.823,187.492 664.665,170.928 648.151,154.386C631.636,137.845 615.044,127.693 595.526,120.106C576.61,112.759 555.002,107.718 523.387,106.301C491.693,104.853 481.567,104.501 400.868,104.501C320.169,104.501 310.019,104.837 278.313,106.301" style="fill:white;fill-rule:nonzero;"/>
    <defs>
        <radialGradient id="_Radial1" cx="0" cy="0" r="1" gradientUnits="userSpaceOnUse" gradientTransform="matrix(1015.7,0,0,1015.7,51.7752,782.475)"><stop offset="0" style="stop-color:rgb(250,143,33);stop-opacity:1"/><stop offset="0.09" style="stop-color:rgb(250,143,33);stop-opacity:1"/><stop offset="0.78" style="stop-color:rgb(216,45,126);stop-opacity:1"/><stop offset="1" style="stop-color:rgb(216,45,126);stop-opacity:1"/></radialGradient>
        <radialGradient id="_Radial2" cx="0" cy="0" r="1" gradientUnits="userSpaceOnUse" gradientTransform="matrix(893.828,0,0,893.828,554.132,756.787)"><stop offset="0" style="stop-color:rgb(140,58,170);stop-opacity:0"/><stop offset="0.64" style="stop-color:rgb(140,58,170);stop-opacity:0"/><stop offset="1" style="stop-color:rgb(140,58,170);stop-opacity:1"/></radialGradient>
    </defs>
</svg>
