<?xml version="1.0" encoding="UTF-8" standalone="no"?>
<!DOCTYPE svg PUBLIC "-//W3C//DTD SVG 1.1//EN" "http://www.w3.org/Graphics/SVG/1.1/DTD/svg11.dtd">
<svg width="100%" height="100%" viewBox="0 0 64 64" version="1.1" xmlns="http://www.w3.org/2000/svg" xmlns:xlink="http://www.w3.org/1999/xlink" xml:space="preserve" xmlns:serif="http://www.serif.com/" style="fill-rule:evenodd;clip-rule:evenodd;">
    <g transform="matrix(1.03735,0,0,1.06594,-1.47622,-1.4918)">
        <g id="Layer-1" serif:id="Layer 1">
            <g id="path4176" transform="matrix(1,0,0,1.11848,0,-7.3872)">
                <path d="M1.446,59.048C1.446,59.048 3.397,50.945 5.197,48.244C6.998,45.543 9.399,44.761 9.399,44.761L32.657,41.041L53.815,44.793C53.815,44.793 55.316,45.093 56.366,45.993C57.417,46.894 59.067,49.745 59.067,49.745L63.119,59.348C63.119,59.348 62.819,59.949 61.168,61.149C59.517,62.349 59.668,62.349 59.668,62.349L5.347,62.349C5.347,62.349 3.997,61.899 2.796,60.849C1.596,59.798 1.296,59.048 1.446,59.048Z" style="fill:url(#_Linear1);fill-rule:nonzero;stroke:black;stroke-width:0.51px;"/>
            </g>
            <g id="path4186" transform="matrix(1,0,0,1,0,-3)">
                <path d="M22.353,43.015C22.353,43.015 23.853,48.417 31.956,48.567C40.059,48.717 41.41,43.465 41.41,43.465L40.209,35.062L24.454,35.062L22.353,43.015Z" style="fill:url(#_Radial2);fill-rule:nonzero;stroke:rgb(214,157,87);stroke-opacity:0.97;stroke-width:0.51px;"/>
            </g>
            <g id="path4186-1" transform="matrix(1,0,0,1,0,-3)">
                <path d="M43.91,15.229L39.082,8.858L26.763,7.302L19.665,15.017L20.467,35.318C20.541,37.185 29.054,41.523 31.93,41.517C34.805,41.511 42.315,36.955 42.473,34.799L43.91,15.229Z" style="fill:url(#_Radial3);fill-rule:nonzero;stroke:rgb(214,157,87);stroke-opacity:0.97;stroke-width:0.51px;"/>
            </g>
            <g id="path4252" transform="matrix(1,0,0,1,0.119665,-2.54231)">
                <path d="M19.241,21.771C19.241,21.771 18.393,20.073 18.286,18.588C18.18,17.102 18.499,11.267 20.833,8.72C23.167,6.174 26.669,3.839 31.762,3.945C36.855,4.051 39.826,5.219 42.054,8.083C44.282,10.948 45.025,13.813 45.025,16.041C45.025,18.27 45.237,17.739 44.707,19.861C44.176,21.983 43.858,21.241 43.858,21.241L41.417,14.556C41.417,14.556 39.083,16.041 36.961,15.405C34.839,14.768 32.717,14.238 31.125,12.222C29.534,10.206 29.109,9.038 29.109,9.038C29.109,9.038 26.244,9.357 23.804,12.328C21.363,15.299 19.241,21.983 19.241,21.771Z" style="fill:rgb(159,106,8);fill-rule:nonzero;"/>
            </g>
        </g>
    </g>
    <defs>
        <linearGradient id="_Linear1" x1="0" y1="0" x2="1" y2="0" gradientUnits="userSpaceOnUse" gradientTransform="matrix(1.1287e-15,-18.433,18.433,1.1287e-15,31.607,59.21)"><stop offset="0" style="stop-color:black;stop-opacity:1"/><stop offset="1" style="stop-color:rgb(92,92,92);stop-opacity:1"/></linearGradient>
        <radialGradient id="_Radial2" cx="0" cy="0" r="1" gradientUnits="userSpaceOnUse" gradientTransform="matrix(-0.806392,-0.806391,2.5037,-2.5037,35.1826,45.1156)"><stop offset="0" style="stop-color:rgb(255,244,229);stop-opacity:1"/><stop offset="1" style="stop-color:rgb(255,205,139);stop-opacity:1"/></radialGradient>
        <radialGradient id="_Radial3" cx="0" cy="0" r="1" gradientUnits="userSpaceOnUse" gradientTransform="matrix(-8.23758,0.617841,-1.06841,-14.2468,35.9119,24.4096)"><stop offset="0" style="stop-color:rgb(255,230,195);stop-opacity:1"/><stop offset="1" style="stop-color:rgb(255,205,139);stop-opacity:1"/></radialGradient>
    </defs>
</svg>
