<svg width="119" height="140" xmlns="http://www.w3.org/2000/svg" xmlns:xlink="http://www.w3.org/1999/xlink">
 <defs>
  <linearGradient id="imagebot_9">
   <stop stop-color="#b3925d" id="imagebot_65"/>
   <stop stop-color="#5d4014" id="imagebot_64" offset="1"/>
  </linearGradient>
  <linearGradient id="imagebot_24">
   <stop stop-color="#fff" id="imagebot_63"/>
   <stop stop-opacity="0" stop-color="#fff" offset="1" id="imagebot_62"/>
  </linearGradient>
  <linearGradient x1="3.83529" y2="0.26302" x2="3.83529" y1="-0.34629" id="imagebot_16" xlink:href="#imagebot_24"/>
  <linearGradient x1="2.18514" y2="0.37278" x2="2.18514" y1="-0.01478" id="imagebot_20" xlink:href="#imagebot_24"/>
  <linearGradient x1="-0.55279" y2="1.01379" x2="-0.55279" y1="-0.01379" id="imagebot_17" xlink:href="#imagebot_9"/>
  <linearGradient y2="1" x2="0.5" y1="0" x1="0.5" id="imagebot_82">
   <stop offset="0" stop-opacity="0.99219" stop-color="#542800"/>
   <stop offset="1" stop-opacity="0.99219" stop-color="#662000"/>
  </linearGradient>
  <linearGradient id="imagebot_83" y2="1" x2="0.5" y1="0" x1="0.5">
   <stop offset="0" stop-opacity="0.99219" stop-color="#542800"/>
   <stop offset="1" stop-opacity="0.99219" stop-color="#662000"/>
  </linearGradient>
 </defs>
 <g>
  <title>Layer 1</title>
  <path id="imagebot_79" stroke-width="0.5" stroke="#57401e" fill-rule="evenodd" fill="url(#imagebot_17)"/>
  <g transform="translate(0 3.06434)" id="imagebot_102">
   <path d="M 22.74422 74.74535044870376 C 31.91926 58.45145044870377 37.64859 41.81313044870377 42.85091 29.248270448703767 C 41.90924 13.406620448703766 52.72854 8.192040448703766 59.79554 8.192040448703766 C 66.86253 8.192040448703766 78.99256 12.669340448703766 76.0848 29.534990448703766 C 80.95944 42.30465044870377 86.3611 59.270660448703765 95.53614 76.05607044870376 C 115.8523 130.92610044870378 73.92952 131.87786044870376 59.79554 131.87786044870376 C 45.66155 131.87786044870376 3.4111000000000002 116.83586044870377 22.74422 74.74535044870376 z" id="imagebot_80" stroke-linecap="null" stroke-linejoin="null" stroke-dasharray="null" stroke="#000000" fill="url(#imagebot_83)"/>
   <path transform="translate(0 0.512) matrix(1 0 0 1 0 -37.4937)" id="imagebot_92" stroke-width="1.143" stroke="url(#imagebot_16)" fill="none" opacity="0.586" d="M 59.47936427844316 46.39889503216985 C 51.40949466195967 46.6597993524647 46.7912370464379 50.28419053324464 44.19117979551757 55.13965915058735 C 50.034283878930864 61.52322215922001 68.81172041094496 64.17701625988963 74.92515422056397 54.788942632751485 C 72.23901202492665 50.05236559006813 67.80056983488612 46.54991700945619 61.10049593995004 46.39889503216985 C 60.54621353239983 46.386403240385086 59.993902535797375 46.38226202213887 59.47936427844316 46.39889503216985 z"/>
   <path transform="translate(0 -0.512) matrix(1 0 0 1 0 -36.9817)" stroke-width="1.113" stroke="#323232" fill-rule="evenodd" fill="#000000" d="M 0.7986898918151866 174.22619862772942 C -0.097920108184816 164.68506862772944 0.9079298918151864 145.87931862772942 14.117579891815183 142.82343862772942 L 57.65248989181518 133.5089986277294 L 103.1211998918152 142.15179862772942 C 116.5566498918152 145.02410862772942 118.02105989181518 163.55207862772943 118.42437989181519 173.9827686277294 C 0.5719998918151816 174.42936862772942 118.47697989181518 173.89226862772944 0.7986898918151866 174.22619862772942 z" id="imagebot_2"/>
   <path stroke-width="1.113" stroke="url(#imagebot_20)" fill="#000000" opacity="0.593" d="M 57.1773 97.07883872083664 L 14.434240000000003 106.71762872083664 L 14.39866 106.71762872083664 C 8.436970000000002 108.11243872083665 5.2424800000000005 112.98359872083665 3.5303200000000032 118.97568872083664 C 1.9480099999999965 124.51329872083664 1.8499800000000022 130.70706872083665 2.1762299999999972 135.29601872083663 C 30.032970000000006 135.21761872083664 45.100809999999996 135.15751872083663 52.241870000000006 135.15347872083663 C 55.91150999999999 135.15147872083665 57.73647 135.18207872083664 58.655969999999996 135.18907872083665 C 59.11572000000001 135.19307872083664 59.32381000000001 135.18307872083665 59.47555 135.18907872083665 C 59.52641 135.19107872083663 59.61632 135.21627872083664 59.68934999999999 135.22467872083664 C 59.69961000000001 135.22501872083663 59.77909 135.22430872083663 59.7962 135.22467872083664 C 59.89894000000001 135.22667872083665 60.04916 135.22367872083663 60.43761000000001 135.22467872083664 C 61.34398999999999 135.22767872083665 63.17347000000001 135.23367872083665 66.85171 135.22467872083664 C 73.98958 135.20697872083664 89.13769000000002 135.15137872083665 116.88172 135.04650872083664 C 116.64753000000002 130.02106872083664 116.11918 123.72255872083664 114.28044 118.19166872083665 C 112.27774 112.16755872083664 108.95868999999999 107.39762872083665 102.87759 106.07614872083664 L 57.1773 97.07883872083664 z" id="imagebot_3"/>
   <path transform="translate(0 -0.512) matrix(1 0 0 1 0 -36.9817)" stroke-width="1.113" stroke="#000000" fill-rule="evenodd" fill="#ffcdb2" d="M 45.24016 124.68690958276748 C 45.47224 130.3192395827675 44.13723 133.56532958276748 41.49851000000001 138.3393595827675 C 46.63544 147.78121958276748 51.76527999999999 153.7549695827675 59.62002 160.2540295827675 C 67.47475 152.82669958276747 73.54878 146.3342795827675 77.70689 137.80701958276748 C 76.45166 134.35116958276748 75.19644 129.66651958276748 73.94121 124.57226958276749 L 45.24016 124.68690958276748 z" id="imagebot_4"/>
   <path transform="translate(0 -0.512) matrix(1 0 0 1 0 -36.9817)" stroke-width="0.976" stroke-linejoin="round" stroke="#000000" fill="#ffcdb2" d="M 87.18131 100.67885958276749 C 87.18131 119.35216958276749 75.33934 134.0977195827675 58.60526 138.1937195827675 C 45.14797999999999 134.0977195827675 32.48680999999999 119.35216958276749 32.48680999999999 100.67885958276749 C 32.48680999999999 82.00555958276749 44.73838000000001 66.85040958276748 59.834059999999994 66.85040958276748 C 74.92974 66.85040958276748 87.18131 82.00555958276749 87.18131 100.67885958276749 z" id="imagebot_5"/>
   <path transform="translate(0 -0.512) matrix(1 0 0 1 0 -36.9817)" stroke="#000000" fill-rule="evenodd" fill="url(#imagebot_82)" d="M 58.73652 60.55180958276749 C 32.629369999999994 61.25627958276748 27.718890000000002 80.5286295827675 29.11278 95.02406958276748 C 29.329250000000002 97.27517958276749 34.27735 131.44748958276747 35.90773 133.26849958276748 C 37.13297 121.83706958276748 35.742279999999994 80.90836958276749 49.40835 74.09559958276749 L 59.11117 77.18910958276749 L 69.46934 74.38438958276748 C 83.18997 80.30845958276748 80.91984 128.0179995827675 81.90542 133.42349958276748 C 83.38494 131.42852958276748 88.61500000000001 96.54846958276748 89.01375000000002 93.86481958276748 C 91.08852000000002 79.90128958276749 83.21866 60.963189582767484 61.350390000000004 60.55180958276749 C 60.4636 60.535119582767486 59.57871 60.52907958276749 58.73652 60.55180958276749 z" id="imagebot_6"/>
   <path transform="translate(0 -0.512) matrix(1 0 0 1 0 -36.9817)" stroke-width="1.143" stroke="url(#imagebot_16)" fill="none" opacity="0.586" d="M 58.762820000000005 61.683199582767486 C 45.99126 62.027819582767485 38.6823 66.81515958276749 34.56739 73.22858958276748 C 43.81482 81.66042958276749 73.53242 85.16573958276749 83.20768 72.76533958276748 C 78.95653 66.50894958276749 71.93215000000001 61.88267958276749 61.32846000000001 61.683199582767486 C 60.45124 61.666699582767485 59.57714 61.66122958276749 58.762820000000005 61.683199582767486 z" id="imagebot_7"/>
  </g>
 </g>
</svg>